<svg id="SHOP_BAG" data-name="SHOP BAG" xmlns="http://www.w3.org/2000/svg" viewBox="0 0 1600 1400"><defs><style>.cls-1{fill:#88c0c2;}.cls-2{fill:#fff;}.cls-3{fill:#262424;}.cls-4{fill:#de9244;}</style></defs><title>Cart</title><path class="cls-1" d="M436.74,1195.14l-137,58.46a12.42,12.42,0,0,1-15.31-5.34l-59.67-105.4c-4.09-7.23-2.18-15.44,4.34-18.22l163.4-69.73c6.52-2.78,13.77,1.52,16.16,9.47l34.81,116A12.42,12.42,0,0,1,436.74,1195.14Z"/><rect class="cls-2" x="201.52" y="1080.8" width="231.06" height="47.24" rx="4.17" ry="4.17" transform="translate(-408.06 213.09) rotate(-23.11)"/><path class="cls-3" d="M226.84,1169.8a15.17,15.17,0,0,1-13.93-9.21l-8.47-19.84a15.16,15.16,0,0,1,8-19.87l188.9-80.62a15.16,15.16,0,0,1,19.88,8l8.46,19.84a15.14,15.14,0,0,1-8,19.87l-188.9,80.62A15.13,15.13,0,0,1,226.84,1169.8Zm180.42-126.13a10.49,10.49,0,0,0-4.12.84l-188.9,80.62a10.54,10.54,0,0,0-5.55,13.82l8.47,19.84a10.53,10.53,0,0,0,13.81,5.55l188.9-80.62a10.52,10.52,0,0,0,5.55-13.81L417,1050.06A10.54,10.54,0,0,0,407.26,1043.67Z"/><rect class="cls-4" x="217.78" y="1028.84" width="146.85" height="30.02" rx="4.87" ry="4.87" transform="translate(-554.57 1721.42) rotate(-113.11)"/><path class="cls-4" d="M1407.27,947.49c-0.4-.19-0.74-0.37-1.11-0.55-19.5-10.26-89.06-68.27-138.48-96.52-17.13-9.8-13.34-50.22,69.19-66.39,5.58-1.08,11.49-2.06,17.81-2.93,0,0,82.81,42.11,97.69,100.12C1467,938.16,1427.21,956.55,1407.27,947.49Z"/><path class="cls-3" d="M1366,911.93a2.31,2.31,0,0,1-2.13-3.2c6.74-16.13,14.36-25.12,17.8-28.66-17.83-16.47-74.81-51.33-75.4-51.7a2.31,2.31,0,1,1,2.41-3.94c2.53,1.54,62,38,78,54a2.31,2.31,0,0,1-.15,3.39c-0.1.08-10,8.64-18.36,28.67A2.31,2.31,0,0,1,1366,911.93Z"/><path class="cls-2" d="M1407.27,947.49c18.89-5.73,32.78-18.21,32.29-42.64C1438.27,843,1361.77,797.24,1336.88,784c5.58-1.08,11.49-2.06,17.81-2.93,0,0,82.81,42.11,97.69,100.12C1467,938.16,1427.21,956.55,1407.27,947.49Z"/><path class="cls-3" d="M1418.07,952a28.37,28.37,0,0,1-11.76-2.44,2.31,2.31,0,0,1,.29-4.31c20.75-6.29,31.06-19.88,30.64-40.38-1.27-61-78-106.37-101.45-118.83a2.31,2.31,0,0,1,.64-4.31c5.79-1.12,11.82-2.11,17.93-2.95a2.26,2.26,0,0,1,1.36.23c3.42,1.74,83.91,43.26,98.88,101.61,9.52,37-3.89,55-12.73,62.41A37.67,37.67,0,0,1,1418.07,952Zm-3.18-4.83c8,0.92,17.06-1.84,24-7.68,8-6.71,20.11-23.14,11.22-57.72-13.77-53.68-88.2-94.26-95.87-98.31-3.56.5-7.09,1-10.56,1.64,28.82,16.17,96.92,60.61,98.16,119.68C1442.28,925.2,1433.21,939.43,1414.89,947.2Z"/><path class="cls-2" d="M1226.08,844.64l50.45-20.8s13.61,5.52,15.92,24l-45.57,30.68Z"/><path class="cls-3" d="M1246.87,880.84a2.27,2.27,0,0,1-.49-0.05,2.31,2.31,0,0,1-1.48-1l-20.8-33.89a2.31,2.31,0,0,1,1.09-3.35l50.45-20.8a2.32,2.32,0,0,1,1.75,0c0.6,0.25,14.89,6.26,17.34,25.86a2.31,2.31,0,0,1-1,2.2l-45.57,30.68A2.31,2.31,0,0,1,1246.87,880.84Zm-17.41-35.09,18.12,29.52,42.37-28.52c-2.19-13.4-10.82-18.95-13.5-20.37Z"/><path class="cls-1" d="M1253.66,912.55s-43.59,37.77-89.53,60.78c-20.95,10.47-42.39,17.9-60.38,17.25-9.83-.37-23-4.68-38.48-12-75-35.37-203.08-140.45-254.19-197.51a261.19,261.19,0,0,1-31.79-43.87C744.94,677.86,740.07,615,766.9,591.11c22.18-19.72,52.9-8.72,86.78,15C876.24,621.86,900.21,643.3,924,665,983.6,719.48,1142.26,852,1142.26,852l70.86-20C1271.13,844.25,1253.66,912.55,1253.66,912.55Z"/><path class="cls-3" d="M862.44,655.22l-83.15,82C744.94,677.86,740.07,615,766.9,591.11c22.18-19.72,52.9-8.72,86.78,15Z"/><path class="cls-4" d="M1164.14,973.34c-20.95,10.47-42.39,17.9-60.38,17.25-9.83-.37-23-4.68-38.48-12-0.92-18.76,16.08-42.76,48-44.7C1152.4,931.5,1164.63,957.23,1164.14,973.34Z"/><path class="cls-3" d="M1121.72,909a2.3,2.3,0,0,1-.94-0.2C1018.38,862.9,808.75,660,806.64,658a2.31,2.31,0,1,1,3.22-3.32c2.09,2,210,203.26,312,249.49l89.25-29.75a2.31,2.31,0,0,1,1.46,4.39l-90.11,30A2.34,2.34,0,0,1,1121.72,909Z"/><path class="cls-3" d="M1238.4,917.42l-0.26,0a2.31,2.31,0,0,1-2-2.56c6.6-57.57-27.63-67.2-29.09-67.59a2.31,2.31,0,0,1,1.15-4.48c0.4,0.1,39.61,10.84,32.53,72.59A2.31,2.31,0,0,1,1238.4,917.42Z"/><path class="cls-4" d="M1148.92,1194.44c-4.62,72.89-30.28,113.46-61.09,108.32a36.56,36.56,0,0,1-15.53-6.16c-16.7-11.71-19.5-36.38-22-56.47-3.08-25.17-23.6-126.56-27.2-145.32s3.6-44.73,24.89-45.44c14.39-.46,41,5.51,59.89,10.32,12.42,3.17,21.5,5.85,21.5,5.85S1153.54,1121.52,1148.92,1194.44Z"/><path class="cls-3" d="M1051.72,1211.12a2.31,2.31,0,0,1-.46-4.57,94.75,94.75,0,0,1,32.57-.46c3-35.39-8.1-120.36-8.21-121.23a2.31,2.31,0,0,1,4.58-.6c0.49,3.68,11.84,90.53,8,124.82a2.31,2.31,0,0,1-2.78,2c-0.16,0-16.46-3.44-33.21,0A2.26,2.26,0,0,1,1051.72,1211.12Z"/><path class="cls-2" d="M1148.92,1194.44c-4.62,72.89-30.28,113.46-61.09,108.32a41.62,41.62,0,0,1-5.21-1.2c13.4-2.83,36.35-17.1,46.43-79.54,12.63-78.62-12.08-145.23-18.95-161.77,11.28,2.93,19.32,5.3,19.32,5.3S1153.54,1121.52,1148.92,1194.44Z"/><path class="cls-3" d="M1093.09,1305.52a34.38,34.38,0,0,1-5.64-.48,44.4,44.4,0,0,1-5.49-1.27,2.31,2.31,0,0,1,.19-4.47c12.41-2.63,34.71-16.2,44.62-77.65,12.39-77.09-11.26-142.35-18.8-160.52a2.31,2.31,0,0,1,2.71-3.12c11.18,2.9,19.31,5.29,19.39,5.32a2.31,2.31,0,0,1,1.47,1.3c0.24,0.57,24.29,57.32,19.68,130h0c-3.14,49.53-16.34,87-36.22,102.76C1108.17,1302.78,1100.82,1305.52,1093.09,1305.52Zm-1.6-4.67c7.27,0.42,14.19-2,20.65-7.11,18.85-15,31.42-51.21,34.48-99.44,4.2-66.31-15.77-119-18.91-126.84-2.09-.6-7.13-2-13.74-3.8,9,23,29.12,85.63,17.37,158.73C1122.88,1274.8,1105.11,1294,1091.49,1300.84Zm57.43-106.4h0Z"/><path class="cls-2" d="M1029.3,1091.88l-23.35-12.45-34.41-18.36,22.34-37,11.68,8.32,39.16,27.85S1056.26,1083,1029.3,1091.88Z"/><path class="cls-3" d="M1029.3,1094.19a2.3,2.3,0,0,1-1.09-.27l-57.77-30.81a2.31,2.31,0,0,1-.89-3.23l22.34-37a2.31,2.31,0,0,1,3.32-.69l50.83,36.17a2.33,2.33,0,0,1,.72.84c0.21,0.42,5.2,10.45,1.1,20.38-2.72,6.6-8.73,11.47-17.85,14.47A2.37,2.37,0,0,1,1029.3,1094.19Zm-54.53-34,54.73,29.19c7.26-2.57,12-6.44,14.09-11.53,2.85-6.9.1-14.13-.73-16l-48.31-34.37Z"/><path class="cls-3" d="M1005.95,1079.44l-34.41-18.36,22.34-37,11.68,8.32A80.67,80.67,0,0,1,1005.95,1079.44Z"/><path class="cls-3" d="M886.81,710.24a2.35,2.35,0,0,1-.51-0.06L869,706.34a2.31,2.31,0,0,1-1.68-1.48L850.36,657.1a2.31,2.31,0,1,1,4.36-1.55l16.52,46.55,16.08,3.57A2.31,2.31,0,0,1,886.81,710.24Z"/><path class="cls-1" d="M1028.53,764.93c-23.88,63.93-94,179.45-94,179.45l68.55,62.39c10.78,74.71-47.75,91.65-47.75,91.65s-75-40.23-116.51-67.25c-10.17-6.62-18.33-12.45-22.89-16.7-18.61-17.38-28.74-39.25-21.9-77.3a219.81,219.81,0,0,1,8-30.53c19.25-57.76,84.72-198.71,84.72-198.71s-46.18-116.48-5.39-144.79c47.75-33.12,121.69,36.2,140.17,67S1052.4,701,1028.53,764.93Z"/><path class="cls-3" d="M959,905a2.31,2.31,0,0,1-2-3.46c23.68-41.36,54.93-98.79,69.37-137.44,24.8-66.39,9.42-105.84-6.75-132.78-12.22-20.36-54.15-64.15-95.72-73.1-15.88-3.41-29.72-1.12-41.15,6.8-38.83,27,5.77,140.9,6.22,142a2.32,2.32,0,0,1-.05,1.82c-0.2.42-19.93,42.94-40.65,90.2a2.31,2.31,0,1,1-4.23-1.85c19.07-43.51,37.31-83,40.27-89.4-4.62-11.93-44.51-118.63-4.2-146.62,12.53-8.69,27.59-11.21,44.76-7.52C967.8,563,1011,608,1023.58,629c16.7,27.83,32.6,68.54,7.11,136.78-14.54,38.94-45.92,96.6-69.68,138.12A2.32,2.32,0,0,1,959,905Z"/><path class="cls-3" d="M886.81,710.24a2.31,2.31,0,0,1-1.65-3.92c0.71-.72,17.76-17.87,58.21-33.28a2.31,2.31,0,1,1,1.64,4.32c-39.38,15-56.38,32-56.55,32.19A2.31,2.31,0,0,1,886.81,710.24Z"/><path class="cls-4" d="M859.86,1017.95c-6,7.86-13.37,12-21,13.22-10.17-6.62-18.33-12.45-22.89-16.7-18.61-17.38-28.74-39.25-21.9-77.3,4.65-8.47,11.64-14.36,21.5-15.13C864.11,918.19,882.59,988.28,859.86,1017.95Z"/><path class="cls-3" d="M970,1011.38a2.3,2.3,0,0,1-1.32-.42l-87.8-61.61a2.31,2.31,0,0,1-.83-2.73C902.77,888,986.57,690.74,993.59,674.23c-14.92-24.35-57.93-68.2-58.37-68.65a2.31,2.31,0,0,1,3.3-3.24c1.83,1.86,45,45.92,59.64,70.53a2.32,2.32,0,0,1,.14,2.08C997.41,677,909.54,883.64,885,946.61l86.32,60.57A2.31,2.31,0,0,1,970,1011.38Z"/><path class="cls-3" d="M947.27,1083a2.31,2.31,0,0,1-.89-4.44c46.71-19.49,38.74-77.43,38.65-78a2.31,2.31,0,1,1,4.57-.67c0.09,0.62,8.54,62.09-41.45,83A2.33,2.33,0,0,1,947.27,1083Z"/><path class="cls-2" d="M372.61,378.64L335,389.91s-101.77-13.39-120.83-14.68-28.5,32.49-3.42,42.79S311,457.16,327.47,457.53,407.53,442,407.53,442Z"/><path class="cls-3" d="M328,459.84h-0.61c-16.85-.38-92-29.22-117.52-39.69-14.42-5.92-18.38-19.29-15.91-29.92,2.52-10.83,10.85-17.92,20.37-17.31,18.44,1.25,111.93,13.51,120.49,14.64L372,376.43a2.31,2.31,0,0,1,2.69,1.1l34.91,63.35a2.31,2.31,0,0,1-1.46,3.36C405.51,444.87,345.46,459.84,328,459.84ZM213.14,377.5c-7.85,0-13.07,7-14.65,13.78-1.88,8.08.44,19.37,13.17,24.59,24.25,10,99.86,39,115.86,39.34,13.9,0.36,63.89-11.66,76.53-14.75l-32.56-59.08L335.7,392.12a2.25,2.25,0,0,1-1,.08c-1-.13-101.91-13.4-120.69-14.67Z"/><path class="cls-4" d="M581,290.16L362.79,377.23S363.39,468.94,427,498l169.88-88.51S647.26,338.38,581,290.16Z"/><path class="cls-3" d="M433.5,483.55a2.31,2.31,0,0,1-1.2-.33c-51.37-31.14-50.75-101.87-50.74-102.58a2.31,2.31,0,0,1,4.62.08c0,0.68-.57,68.81,48.51,98.55A2.31,2.31,0,0,1,433.5,483.55Z"/><path class="cls-4" d="M601.17,287.86l97.34,9.56L837.14,287s116.68,155.19,185.23,298.45c0,0-56.22,95.5-167.13,110.14s-158.66-22.34-158.66-22.34S684.25,580.85,644.2,517.7c-30.28-47.74-91.8-118.38-95.91-179C546.29,309.15,571.65,285,601.17,287.86Z"/><path class="cls-3" d="M575.38,416.93a2.31,2.31,0,0,1-2-1.17c-16.94-29.83-25.89-55-27.37-76.86a49.83,49.83,0,0,1,10.2-33.74,2.31,2.31,0,0,1,3.66,2.82,45.21,45.21,0,0,0-9.25,30.61c1.44,21.19,10.19,45.68,26.78,74.9A2.31,2.31,0,0,1,575.38,416.93Z"/><path class="cls-3" d="M810.44,682.48c-58.86,0-101-16.09-101.54-16.3a2.31,2.31,0,1,1,1.68-4.31C711.3,662.16,783.09,689.52,870,672c82.31-16.56,134.08-93.73,134.59-94.51a2.31,2.31,0,1,1,3.86,2.55c-0.52.79-53.36,79.56-137.54,96.5A306.77,306.77,0,0,1,810.44,682.48Z"/><path class="cls-2" d="M684.63,284.33c-28.85,3.14-71.11,43.9-33.63,80.87,0,0,7.83-13.48,18.23-23.88,0,0,4.24,16.17,12.32,30,0,0,35.3-16.94,42.87-49.29S702.34,282.4,684.63,284.33Z"/><path class="cls-3" d="M681.55,373.67a2.31,2.31,0,0,1-2-1.15,135.1,135.1,0,0,1-11.42-26.71A137.53,137.53,0,0,0,653,366.36a2.31,2.31,0,0,1-3.62.48c-18-17.73-17.07-34.89-13.14-46.17C643.7,299.23,667,283.92,684.38,282h0c11.24-1.21,27.64,1.05,36.87,11.48,6.42,7.25,8.24,17,5.43,29.09-7.74,33-42.64,50.14-44.12,50.85A2.32,2.32,0,0,1,681.55,373.67ZM669.22,339a2.32,2.32,0,0,1,2.24,1.73,138.87,138.87,0,0,0,11,27.53c7.32-4,33.49-20.13,39.72-46.73,2.46-10.5,1-18.9-4.39-25-7.54-8.52-22-11.13-32.91-9.95h0c-16,1.74-37.62,16.45-44.28,35.57-4.73,13.58-1.27,27.09,10,39.25a131.93,131.93,0,0,1,17-21.76A2.31,2.31,0,0,1,669.22,339Z"/><path class="cls-2" d="M682.58,228.26L692,256,708,303.58c-11.77,16.89-26.74,23.73-45.69,18l-5.87-22.67-8.89-34.33Z"/><path class="cls-3" d="M674.93,325.89a46,46,0,0,1-13.24-2.06,2.31,2.31,0,0,1-1.57-1.63l-14.76-57a2.31,2.31,0,0,1,.57-2.18l35-36.35a2.31,2.31,0,0,1,3.85.86l25.47,75.32a2.31,2.31,0,0,1-.29,2.06C700.22,318.87,688.48,325.89,674.93,325.89Zm-10.67-6.13c16.46,4.5,30-.93,41.22-16.55L681.61,232.6l-31.45,32.68Z"/><path class="cls-3" d="M670.5,240.81c4.36,12.51,21.07,54.43-10.61,71.27L647.6,264.61Z"/><path class="cls-2" d="M603.41,249.88c6.39,22.87,18,49.54,45.16,40.36,32.31-10.92,49.7-38.13,44.52-69.78S670.24,173.51,633,183.71a58.92,58.92,0,0,0-9.24,3.36c-20.75,9.65-28.57,29.6-23.54,50.53C601.17,241.38,602.19,245.56,603.41,249.88Z"/><path class="cls-3" d="M640.39,294.88a26.7,26.7,0,0,1-15.2-3.21c-15.84-8.74-22.62-32.14-27.73-53.4-6.45-26.82,7.54-49.86,34.81-57.33a2.88,2.88,0,0,1,1.52,5.55c-24.43,6.69-36.5,26.5-30.74,50.44,3.48,14.49,10,41.46,24.92,49.71,5.7,3.15,12.14,3.43,19.68.88,12-4.07,21.94-10.4,29.42-18.81a2.87,2.87,0,0,1,4.3,3.82c-8,9-19.06,16.1-31.87,20.44A37.13,37.13,0,0,1,640.39,294.88Z"/><path class="cls-3" d="M706.47,222.65a99.38,99.38,0,0,1-8.56,15l-14.82,3.84-4.66-11.33s-13.72,1.53-17.2-5.32a4.25,4.25,0,0,1-.23-0.48c-1-2.27-5-12.46-6.26-29.16,0,0-23.79,15.85-37.57,19.77-5,1.41-11.18.5-17.14-1.26-11.92-3.52-24.62-19.74-24.81-32.17q0-.12,0-0.24c-0.06-18.25,11.31-7.57,11.31-7.57s0.16-14.73,8.92-17.31S612.22,166,612.22,166a142.92,142.92,0,0,1,52-11.28c35.48-.73,31,24.58,31,24.58S722.06,183,706.47,222.65Z"/><path class="cls-2" d="M681.79,241.64c-3.55-13.52,4.14-27.95,17.7-31.37a22.85,22.85,0,0,1,8.26-.57c17.43,2,18.88,41.69-22.57,44.85Z"/><path class="cls-3" d="M685.18,256.86a2.31,2.31,0,0,1-.17-4.62c23.25-1.78,31.74-15.12,32-26,0.15-7.6-3.84-13.59-9.48-14.24a20.56,20.56,0,0,0-7.43.52c-9.48,2.39-16.39,11.23-16.8,21.48a2.28,2.28,0,0,1-2.4,2.22,2.31,2.31,0,0,1-2.22-2.4c0.49-12.29,8.83-22.89,20.28-25.78a25.11,25.11,0,0,1,9.09-.63c8.06,0.93,13.76,8.89,13.57,18.92C721.32,240.16,710,255,685.36,256.85h-0.18Z"/><path class="cls-2" d="M1056.28,1114.81s72.82-9,73.25-104.51-69.11-99.82-69.11-99.82l-214.15-.85s66.12,168.08,109.21,186S1056.28,1114.81,1056.28,1114.81Z"/><path class="cls-3" d="M1056.28,1117.12h-0.05c-0.58,0-58.65-1.5-101.64-19.37-43.49-18.09-107.75-180.38-110.47-187.28a2.31,2.31,0,0,1,2.15-3.16h0l214.15,0.85c0.85,0,71.84,5.52,71.41,102.14s-74.52,106.71-75.27,106.8ZM849.69,911.94c9.37,23.18,68.19,165.54,106.67,181.54,41,17.06,96.29,18.91,99.8,19,4.67-.63,70.65-11.24,71.06-102.21,0.41-92.14-64.19-97.33-66.94-97.51Z"/><path class="cls-2" d="M982.35,964.65l101.1,3s23,43.09-5.55,84l-93.85-.44Z"/><path class="cls-3" d="M1077.9,1054h0l-93.85-.44a2.31,2.31,0,0,1-2.3-2.27L980,964.69a2.31,2.31,0,0,1,.69-1.69,2.41,2.41,0,0,1,1.69-.67l101.1,3a2.3,2.3,0,0,1,2,1.22c0.24,0.44,23.37,44.82-5.69,86.45A2.32,2.32,0,0,1,1077.9,1054Zm-91.59-5.05,90.38,0.42c23.86-35.28,8.57-72.43,5.29-79.46L984.71,967Z"/><path class="cls-2" d="M1060.41,910.47s-42.23,24.74-38.82,78.07,56.31,63.14,56.31,63.14L897,1050.82l-50.76-141.2Z"/><path class="cls-3" d="M1077.9,1054h0L897,1053.13a2.32,2.32,0,0,1-2.16-1.53L844.09,910.4a2.31,2.31,0,0,1,2.18-3.09h0l214.15,0.85a2.31,2.31,0,0,1,1.16,4.3c-0.41.24-41,24.72-37.68,75.93,3.26,50.86,52.34,60.62,54.43,61A2.31,2.31,0,0,1,1077.9,1054Zm-179.25-5.47,164.74,0.78c-16.46-7.11-41.76-23.94-44.11-60.61-2.67-41.66,22.19-66.56,34-75.93l-203.71-.82Z"/><path class="cls-2" d="M591.05,390.45s46.34,21.76,50.53,81.05-35.06,92.14-35.06,92.14l-79.77-4.27S505.62,417.76,591.05,390.45Z"/><path class="cls-3" d="M606.52,566H606.4l-79.77-4.26a2.31,2.31,0,0,1-2.16-2c-0.22-1.44-20.42-143.89,65.89-171.47a2.3,2.3,0,0,1,1.69.11c0.48,0.22,47.61,23,51.85,83,4.22,59.78-35.48,93.74-35.88,94.08A2.31,2.31,0,0,1,606.52,566Zm-77.73-8.78,76.91,4.11c5.06-4.64,37.33-36.47,33.58-89.62s-42.38-75.53-48.42-78.72C514.54,418.33,526.75,540.55,528.79,557.18Z"/><path class="cls-2" d="M574.1,488.14s5.12,47.78,32.42,75.51l-79.77-4.27L516.51,484.3Z"/><path class="cls-3" d="M606.52,566H606.4l-79.77-4.26a2.31,2.31,0,0,1-2.17-2l-10.24-75.08a2.31,2.31,0,0,1,2.44-2.62l57.59,3.84a2.31,2.31,0,0,1,2.14,2.06c0.05,0.47,5.37,47.32,31.77,74.13A2.31,2.31,0,0,1,606.52,566Zm-77.74-8.78L601,561c-21.59-25.21-27.74-61.83-28.95-70.72l-52.86-3.52Z"/><path class="cls-2" d="M1056.28,1114.81H618.9s-100.69-35-141.65-144.18S322,757.31,262.25,699.32s-140.78-209-50.76-326.78l379.56,17.92s-74.87,51-46.38,151.32c21.19,74.69,84.47,131.07,167.22,196.78S850.95,870.8,880.82,951.84C908.77,1027.73,980.1,1109.56,1056.28,1114.81Z"/><path class="cls-3" d="M1056.28,1117.12H618.9a2.24,2.24,0,0,1-.76-0.13c-1-.35-102.19-36.6-143-145.55-37.57-100.19-138.93-197.74-199.49-256-5.28-5.08-10.29-9.9-15-14.44-56.75-55.15-143.88-208.33-51-329.84a2.37,2.37,0,0,1,1.94-.9l379.56,17.92a2.31,2.31,0,0,1,1.19,4.22c-0.73.5-73.14,51.27-45.46,148.78,21.49,75.75,88.09,133.4,166.43,195.6C800.78,806.18,854.69,874.28,883,951c27.39,74.37,97.49,156.23,173.45,161.46A2.31,2.31,0,0,1,1056.28,1117.12Zm-437-4.62h410.93c-67.52-19.32-126.82-92.61-151.59-159.86-28-75.93-81.44-143.38-168.2-212.28-79-62.71-146.13-120.88-168-198-24.21-85.28,25.86-136,42.31-149.93L212.6,374.9c-89.83,118.89-4.38,268.69,51.26,322.76,4.67,4.53,9.67,9.35,14.95,14.42,60.84,58.56,162.68,156.57,200.61,257.73C518.29,1073.46,612.75,1110.07,619.31,1112.5Z"/><path class="cls-4" d="M224.57,452.63c-5.1.49-9.17,30.07-5.76,49.7s8.11,25.6,9.81,27.3,70,4.69,73.37,4.27-1.71-21.76-2.13-36.26,1.71-34.55,1.71-37.54S231.19,452,224.57,452.63Z"/><path class="cls-1" d="M341.9,501.79h0a9.85,9.85,0,0,0,9.26,9.62L487,519.53a10.76,10.76,0,0,0,11.38-11.37h0A10.76,10.76,0,0,0,488.13,498l-135.93-6.31A9.85,9.85,0,0,0,341.9,501.79Z"/><path class="cls-4" d="M256.69,589.86c-4.89.8,2.4,26.18,13.34,42.57s17.91,21.1,20.27,22.42,71.57-1.23,74.81-1.85-10.06-18.32-16.05-30.59-11.57-29.43-12.71-32S263,588.83,256.69,589.86Z"/><path class="cls-1" d="M394.42,623.17h0a9.85,9.85,0,0,0,9.26,9.62l135.83,8.12a10.76,10.76,0,0,0,11.38-11.37h0a10.76,10.76,0,0,0-10.24-10.11l-135.93-6.31A9.85,9.85,0,0,0,394.42,623.17Z"/><path class="cls-4" d="M345.4,703.64c-4.89.8,2.4,26.18,13.34,42.57s17.91,21.1,20.27,22.42,71.57-1.23,74.81-1.85-10.06-18.32-16.05-30.59-11.57-29.43-12.71-32S351.74,702.61,345.4,703.64Z"/><path class="cls-1" d="M483.13,737h0a9.85,9.85,0,0,0,9.64,9.24l136,2.67a10.76,10.76,0,0,0,10.92-11.82h0a10.76,10.76,0,0,0-10.64-9.7L493,726.5A9.85,9.85,0,0,0,483.13,737Z"/><path class="cls-4" d="M448.31,823.4c-4.85,1,3.49,26.06,15.1,42s18.77,20.34,21.18,21.56,71.46-4.2,74.67-4.95-10.81-17.89-17.31-29.9-12.78-28.92-14-31.4S454.61,822.1,448.31,823.4Z"/><path class="cls-1" d="M587.3,844.66h0a9.85,9.85,0,0,0,10,8.83l136-3a10.76,10.76,0,0,0,10.42-12.26h0a10.76,10.76,0,0,0-11-9.25l-136,4.78A9.85,9.85,0,0,0,587.3,844.66Z"/><path class="cls-4" d="M523.81,933.3c-4.85,1,3.49,26.06,15.1,42s18.77,20.34,21.18,21.56,71.46-4.2,74.67-4.95S623.95,974,617.45,962s-12.78-28.92-14-31.4S530.11,932,523.81,933.3Z"/><path class="cls-1" d="M662.8,954.57h0a9.85,9.85,0,0,0,10,8.83l136-3a10.76,10.76,0,0,0,10.42-12.26h0a10.76,10.76,0,0,0-11-9.25l-136,4.78A9.85,9.85,0,0,0,662.8,954.57Z"/><path class="cls-4" d="M604.49,1031c-4.85,1,3.49,26.06,15.1,42s18.77,20.34,21.18,21.56,71.46-4.2,74.67-4.95-10.81-17.89-17.31-29.9-12.78-28.92-14-31.4S610.79,1029.66,604.49,1031Z"/><path class="cls-1" d="M743.48,1052.23h0a9.85,9.85,0,0,0,10,8.83l136-3A10.76,10.76,0,0,0,900,1045.83h0a10.76,10.76,0,0,0-11-9.25l-136,4.78A9.85,9.85,0,0,0,743.48,1052.23Z"/><path class="cls-4" d="M973.07,482.27s-7.7,41.59-74.71,42.36c-43.81.49-64.57-23-73.69-39.37-4.84-8.66-45.69-105.42-48.77-133.15s6.93-69.32,61.21-65.1c50.25,3.94,125.79,172.09,135,193.1a2.38,2.38,0,0,0,.22.49,1.82,1.82,0,0,1,.12.25c0.31,0.77.52,1.26,0.55,1.39Z"/><path class="cls-3" d="M897,526.95c-45,0-65.89-25.35-74.37-40.57-4.73-8.47-45.89-105.63-49-134-1-8.64-2.5-38.19,18-55.68a2.31,2.31,0,0,1,3,3.51c-18.75,16-17.28,43.58-16.38,51.65,3,27.08,43.87,124,48.49,132.28,9.75,17.49,29.84,38.2,70.3,38.2h1.35c36.87-.42,55.16-13.44,64-24.28a2.31,2.31,0,1,1,3.58,2.92c-9.47,11.61-28.88,25.54-67.53,26H897Z"/><path class="cls-3" d="M827.71,465.32a2.31,2.31,0,0,1-1.66-3.91c0.48-.49,48.44-48.91,121.49-20.57a2.31,2.31,0,0,1-1.67,4.31c-70.11-27.2-116,19-116.5,19.48A2.31,2.31,0,0,1,827.71,465.32Z"/><path class="cls-4" d="M973.07,482.27s-6.25,33.83-56.62,41a144.66,144.66,0,0,1-18.08,1.32c-43.81.49-64.57-23-73.69-39.37a92.29,92.29,0,0,1,37.77-27.76A114.92,114.92,0,0,1,902,449.4a131.2,131.2,0,0,1,13.15.19c40.2,2.53,53.67,23.66,57,30.53a2.38,2.38,0,0,0,.22.49,1.82,1.82,0,0,1,.12.25,11.53,11.53,0,0,1,.55,1.39Z"/><path class="cls-3" d="M897,526.95c-45,0-65.9-25.35-74.38-40.57a2.31,2.31,0,0,1,.21-2.56,94.13,94.13,0,0,1,38.71-28.46,117.69,117.69,0,0,1,40.31-8.27,133.57,133.57,0,0,1,13.39.19c18.9,1.19,34.31,6.5,45.77,15.8a2.31,2.31,0,1,1-2.91,3.59C947.44,458,932.92,453,915,451.89c-4-.27-8.36-0.33-12.94-0.18a113.05,113.05,0,0,0-38.73,7.93,89.89,89.89,0,0,0-35.85,25.84c10.13,17.38,30.5,37.21,70.88,36.84a143.18,143.18,0,0,0,17.79-1.3c25.71-3.68,39.32-14.53,46.22-23a2.31,2.31,0,0,1,3.58,2.92c-7.41,9.09-22,20.74-49.15,24.63a148,148,0,0,1-18.38,1.35H897Z"/><path class="cls-2" d="M919.71,513.51a24.74,24.74,0,0,1-3.27,9.8c-9.37,16.3-38.66,29.79-90.3,21.5-42-6.75-109.06-34.5-147.75-51.63-18.27-8.07-30.22-13.77-30.22-13.77l7.55-26.77s1.76,0,4.93,0c27.11,0.28,158.5,1.69,201.79,4.84A114.92,114.92,0,0,1,902,449.4a131.19,131.19,0,0,1,13.15.19l1.76,21.78L919.49,504l0.09,1A38.2,38.2,0,0,1,919.71,513.51Z"/><path class="cls-3" d="M855.74,549.64a189.5,189.5,0,0,1-30-2.55c-42.76-6.87-111.28-35.4-148.32-51.8-18.09-8-30.16-13.74-30.28-13.8a2.31,2.31,0,0,1-1.23-2.71L653.5,452a2.31,2.31,0,0,1,2.22-1.68s1.76,0,5,0c47.11,0.48,160.7,1.91,201.4,4.8a117.88,117.88,0,0,1,39.81-8.07,133.6,133.6,0,0,1,13.39.19,2.31,2.31,0,0,1,2.15,2.12l4.46,55.33a40.2,40.2,0,0,1,.12,9h0a27,27,0,0,1-3.57,10.71C910.86,537.66,890.72,549.64,855.74,549.64ZM650.93,478.15c4,1.87,14.36,6.71,28.4,12.91,36.84,16.31,104.94,44.68,147.19,51.46,51.45,8.26,79.15-5.11,87.92-20.37a22.4,22.4,0,0,0,3-8.88h0a35.82,35.82,0,0,0-.12-8l-0.1-1L913,451.77c-3.44-.17-7.1-0.19-10.94-0.06a113.05,113.05,0,0,0-38.73,7.93,2.19,2.19,0,0,1-1,.16c-41.22-3-164.76-4.45-201.64-4.83l-3.16,0Z"/><path class="cls-3" d="M678.39,493.17c-18.27-8.07-30.22-13.77-30.22-13.77l7.55-26.77s1.76,0,4.93,0Z"/><path class="cls-3" d="M916.88,471.36c-26.22-10.81-54.44-13.86-54.44-13.86A114.92,114.92,0,0,1,902,449.4a131.2,131.2,0,0,1,13.15.19Z"/><path class="cls-2" d="M617.41,422.32s-32.21,4.9-35.88-3.15,10.48-20,42.32-19.81,26.27,18.59,26.27,18.59,14.14,10.35,10.91,38.78-11.48,40.56-49.42,37.88S580.72,442.77,584,434.38,617.41,422.32,617.41,422.32Z"/><path class="cls-3" d="M621.17,497.27c-3,0-6.25-.12-9.72-0.37-11.44-.81-20.06-5.67-25.62-14.46-10.85-17.15-6.25-43.1-4-48.91,1.24-3.19,5.21-5.71,10.09-7.67-5.95-.62-10.92-2.25-12.51-5.74a9.38,9.38,0,0,1,1-9.2c4.43-6.83,18.16-14,43.4-13.88,13,0.09,21.75,3.13,26.09,9a15,15,0,0,1,2.69,11c3.52,3.3,13.51,15,10.67,39.91C660.28,483.73,652.83,497.27,621.17,497.27ZM614,425.12c-11.59,1.79-26.11,5.68-27.84,10.09-1.92,4.92-6,29.55,3.58,44.76,4.73,7.47,12.14,11.62,22,12.32,36.62,2.59,43.85-8.44,47-35.83,3-26.58-9.45-36.26-10-36.66a2.33,2.33,0,0,1-.84-2.53,10.32,10.32,0,0,0-1.72-8.51c-3.41-4.56-11.14-7-22.36-7.1-23.4-.23-35.9,6.24-39.49,11.78-1.12,1.73-1.36,3.33-.71,4.77,1.66,3.66,16.07,4,29.75,2.33,1.64-.25,2.94-0.42,3.74-0.51a2.31,2.31,0,0,1,.63,4.58C616.76,424.75,615.48,424.94,614,425.12Z"/><path class="cls-2" d="M223.1,371.46s19.07,26.42,27.38,23.4,7-21.52-15.5-44.08S203.31,345,203.31,345,186,342.2,168,364.41s-20.92,36.6,7.57,61.8,58.63-14.25,62.32-22.47S223.1,371.46,223.1,371.46Z"/><path class="cls-3" d="M195.63,436.84c-7.67,0-14.91-3-21.59-8.89-30-26.53-26.42-42.09-7.84-65,15.79-19.45,31.14-20.55,36-20.33a15,15,0,0,1,9.73-5.77c7.26-1,15.58,3.1,24.72,12.29,17.81,17.89,22.26,32.76,20.49,40.7a9.38,9.38,0,0,1-5.84,7.18c-3.61,1.3-8.26-1.1-12.86-4.91,2,4.86,3,9.46,1.59,12.57-2.56,5.69-17.86,27.14-37.7,31.41A31.69,31.69,0,0,1,195.63,436.84Zm5.51-89.62c-4.65,0-17.6,1.7-31.35,18.65-17.37,21.41-20.19,34.28,7.31,58.62,7.43,6.57,15.59,9,24.22,7.1,17.6-3.78,32.29-24,34.46-28.79,1.95-4.32-5.45-17.41-12.29-26.94-0.91-1.19-1.68-2.24-2.27-3.06a2.31,2.31,0,0,1,3.71-2.76c0.49,0.64,1.28,1.68,2.24,3,8.39,11,18.75,21,22.51,19.63,1.48-.54,2.46-1.83,2.91-3.84,1.44-6.44-2.74-19.85-19.25-36.44-7.92-8-15.09-11.75-20.73-11a10.32,10.32,0,0,0-7.29,4.75,2.32,2.32,0,0,1-2.4,1.16A12.6,12.6,0,0,0,201.14,347.22Z"/><path class="cls-2" d="M975.77,284.59l-98.53-60.81a15.78,15.78,0,0,1-3.84-23.52l66.75-80.17a15.78,15.78,0,0,1,20.41-3.33l73.51,45.36a15.78,15.78,0,0,1,6.17,19.73l-41.73,95.62A15.78,15.78,0,0,1,975.77,284.59Z"/><path class="cls-3" d="M984.06,289.25a18.06,18.06,0,0,1-9.49-2.7L876,225.75a18.09,18.09,0,0,1-4.4-27l66.75-80.17a18.17,18.17,0,0,1,23.39-3.82l73.51,45.36a18.17,18.17,0,0,1,7.08,22.63l-41.73,95.61A18.09,18.09,0,0,1,984.06,289.25ZM952.31,116.74a13.5,13.5,0,0,0-10.38,4.83l-66.75,80.17a13.46,13.46,0,0,0,3.28,20.07L977,282.62h0a13.47,13.47,0,0,0,19.41-6.07l41.73-95.62a13.53,13.53,0,0,0-5.27-16.84l-73.51-45.36A13.37,13.37,0,0,0,952.31,116.74Z"/><path class="cls-1" d="M967.84,135.17L990.17,99a27.33,27.33,0,0,1,46.52,28.71l-22.33,36.18a3.64,3.64,0,1,0,6.2,3.83l22.33-36.18A34.62,34.62,0,1,0,984,95.16l-22.33,36.18a3.64,3.64,0,1,0,6.2,3.83h0Z"/><path class="cls-1" d="M1313.51,600.78h0a37.13,37.13,0,0,0-37.13,37.13h0a37.13,37.13,0,0,0-37.13-37.13h0a37.13,37.13,0,0,0,37.13-37.13h0a37.13,37.13,0,0,0,37.13,37.13h0Z"/><path class="cls-1" d="M1212.94,706.54h0a15,15,0,0,0-15,15h0a15,15,0,0,0-15-15h0a15,15,0,0,0,15-15h0a15,15,0,0,0,15,15h0Z"/><path class="cls-1" d="M470.62,151.39h0a27.86,27.86,0,0,0-27.86,27.86h0a27.86,27.86,0,0,0-27.86-27.86h0a27.86,27.86,0,0,0,27.86-27.86h0a27.86,27.86,0,0,0,27.86,27.86h0Z"/><path class="cls-1" d="M324.75,909.62h0a34,34,0,0,0-34,34h0a34,34,0,0,0-34-34h0a34,34,0,0,0,34-34h0a34,34,0,0,0,34,34h0Z"/><circle class="cls-4" cx="1025.54" cy="406.64" r="16.19"/><circle class="cls-4" cx="1138.66" cy="625.52" r="9.24"/><circle class="cls-4" cx="169.77" cy="1043.85" r="13.86"/><circle class="cls-4" cx="176.7" cy="250.44" r="17.71"/><circle class="cls-4" cx="383.88" cy="295.88" r="9.24"/></svg>